<?xml version="1.0" standalone="no"?><!DOCTYPE svg PUBLIC "-//W3C//DTD SVG 1.1//EN" "http://www.w3.org/Graphics/SVG/1.1/DTD/svg11.dtd">
<svg x="0.0000mm" y="0.0000mm" width="128.5870mm" height="27.7810mm" viewBox="0.0000 0.0000 128.5870 27.7810" version="1.1" xmlns="http://www.w3.org/2000/svg" shape-rendering="crispEdges">
<title>TBarCode - 11.15.0.16817</title>
<desc>BarCode licensed to MEM:TEC-IT Datenverarbeitung GmbH Internal License</desc>
<g fill="rgb(0%,0%,0%)">
</g>
<g fill="rgb(100%,100%,100%)">
<rect x="0.0000" y="0.0000" width="128.5870" height="27.7810" />
</g>
<g fill="rgb(0%,0%,0%)">
</g>
<g fill="rgb(0%,0%,0%)">
<rect x="0.0000" y="0.0000" width="1.1038" height="21.1174" />
<rect x="1.6556" y="0.0000" width="0.5519" height="21.1174" />
<rect x="3.3113" y="0.0000" width="1.6556" height="21.1174" />
<rect x="6.0706" y="0.0000" width="1.1038" height="21.1174" />
<rect x="8.2781" y="0.0000" width="1.1038" height="21.1174" />
<rect x="9.9338" y="0.0000" width="1.1038" height="21.1174" />
<rect x="12.1413" y="0.0000" width="1.1038" height="21.1174" />
<rect x="14.9006" y="0.0000" width="0.5519" height="21.1174" />
<rect x="16.5563" y="0.0000" width="0.5519" height="21.1174" />
<rect x="18.2119" y="0.0000" width="1.1038" height="21.1174" />
<rect x="20.4194" y="0.0000" width="1.1038" height="21.1174" />
<rect x="22.0750" y="0.0000" width="1.1038" height="21.1174" />
<rect x="24.2825" y="0.0000" width="1.1038" height="21.1174" />
<rect x="27.0419" y="0.0000" width="0.5519" height="21.1174" />
<rect x="28.6975" y="0.0000" width="0.5519" height="21.1174" />
<rect x="30.3532" y="0.0000" width="0.5519" height="21.1174" />
<rect x="31.4569" y="0.0000" width="2.2075" height="21.1174" />
<rect x="34.2163" y="0.0000" width="1.6556" height="21.1174" />
<rect x="36.4238" y="0.0000" width="1.1038" height="21.1174" />
<rect x="38.0794" y="0.0000" width="1.1038" height="21.1174" />
<rect x="40.2869" y="0.0000" width="1.1038" height="21.1174" />
<rect x="42.4944" y="0.0000" width="0.5519" height="21.1174" />
<rect x="43.5982" y="0.0000" width="1.6556" height="21.1174" />
<rect x="45.8057" y="0.0000" width="2.2075" height="21.1174" />
<rect x="48.5650" y="0.0000" width="1.1038" height="21.1174" />
<rect x="50.7725" y="0.0000" width="1.1038" height="21.1174" />
<rect x="52.4282" y="0.0000" width="1.1038" height="21.1174" />
<rect x="54.6357" y="0.0000" width="1.1038" height="21.1174" />
<rect x="56.8432" y="0.0000" width="0.5519" height="21.1174" />
<rect x="59.0507" y="0.0000" width="0.5519" height="21.1174" />
<rect x="60.7063" y="0.0000" width="1.1038" height="21.1174" />
<rect x="62.9138" y="0.0000" width="1.1038" height="21.1174" />
<rect x="64.5694" y="0.0000" width="1.1038" height="21.1174" />
<rect x="66.7769" y="0.0000" width="1.1038" height="21.1174" />
<rect x="68.9844" y="0.0000" width="1.1038" height="21.1174" />
<rect x="70.6401" y="0.0000" width="1.1038" height="21.1174" />
<rect x="72.8476" y="0.0000" width="0.5519" height="21.1174" />
<rect x="73.9513" y="0.0000" width="2.2075" height="21.1174" />
<rect x="76.7107" y="0.0000" width="1.6556" height="21.1174" />
<rect x="78.9182" y="0.0000" width="1.1038" height="21.1174" />
<rect x="80.5738" y="0.0000" width="1.1038" height="21.1174" />
<rect x="82.7813" y="0.0000" width="1.1038" height="21.1174" />
<rect x="84.9888" y="0.0000" width="0.5519" height="21.1174" />
<rect x="86.0926" y="0.0000" width="1.6556" height="21.1174" />
<rect x="88.3001" y="0.0000" width="2.2075" height="21.1174" />
<rect x="91.0595" y="0.0000" width="1.1038" height="21.1174" />
<rect x="93.2670" y="0.0000" width="1.1038" height="21.1174" />
<rect x="94.9226" y="0.0000" width="1.1038" height="21.1174" />
<rect x="97.1301" y="0.0000" width="1.1038" height="21.1174" />
<rect x="99.3376" y="0.0000" width="0.5519" height="21.1174" />
<rect x="101.5451" y="0.0000" width="0.5519" height="21.1174" />
<rect x="103.2007" y="0.0000" width="1.1038" height="21.1174" />
<rect x="104.8564" y="0.0000" width="1.1038" height="21.1174" />
<rect x="107.0639" y="0.0000" width="1.1038" height="21.1174" />
<rect x="109.2714" y="0.0000" width="1.1038" height="21.1174" />
<rect x="111.4789" y="0.0000" width="0.5519" height="21.1174" />
<rect x="113.6864" y="0.0000" width="0.5519" height="21.1174" />
<rect x="115.3420" y="0.0000" width="2.2075" height="21.1174" />
<rect x="118.1014" y="0.0000" width="0.5519" height="21.1174" />
<rect x="119.2051" y="0.0000" width="1.6556" height="21.1174" />
<rect x="121.4126" y="0.0000" width="1.1038" height="21.1174" />
<rect x="124.1720" y="0.0000" width="1.6556" height="21.1174" />
<rect x="126.3795" y="0.0000" width="0.5519" height="21.1174" />
<rect x="127.4832" y="0.0000" width="1.1038" height="21.1174" />
</g>
<g fill="rgb(0%,0%,0%)">
<text x="64.2935" y="26.5316" transform="rotate(360 64.2935,26.5316)" text-anchor="middle" font-family="Arial" font-size="5.9972" >01110111 01100101 01100010</text>
</g>
</svg>
